<!-- 
    Copyright (C) 2024 Timon Spaeth
-->
<svg xmlns="http://www.w3.org/2000/svg" viewBox="0 0 157.85 220.46">
    <style>
        .cls-1 {
            fill: #000;
        }

        .cls-1,
        .cls-2,
        .cls-3,
        .cls-4,
        .cls-5,
        .cls-6,
        .cls-7,
        .cls-8 {
            stroke-width: 0px;
        }

        .cls-2 {
            fill: #545f66;
        }

        .cls-3 {
            fill: #626f7c;
        }

        .cls-4 {
            fill: #8493a5;
        }

        .cls-5 {
            fill: #ced3d8;
        }

        .cls-6 {
            fill: #d8e5ef;
        }

        .cls-7 {
            fill: #e6f4ff;
        }

        .cls-9 {
            fill: #45535b;
            stroke-width: 2px;
        }

        .cls-9,
        .cls-10,
        .cls-11 {
            stroke: #000;
            stroke-miterlimit: 10;
        }

        .cls-8 {
            fill: #fff;
        }

        .cls-10 {
            fill: #ffef7b;
        }

        .cls-10,
        .cls-11 {
            stroke-width: 3px;
        }

        .cls-11 {
            fill: none;
        }
    </style>
    <defs> </defs>
    <g id="Ebene_1-2" data-name="Ebene 1">
        <g>
            <path class="cls-3"
                d="M16.7,3.34h124.45c8.11,0,14.7,6.59,14.7,14.7v185.73c0,8.11-6.59,14.7-14.7,14.7H16.7c-8.11,0-14.7-6.59-14.7-14.7V18.03C2,9.92,8.59,3.34,16.7,3.34Z" />
            <path class="cls-1"
                d="M141.15,5.34c7,0,12.7,5.7,12.7,12.7v185.73c0,7-5.7,12.7-12.7,12.7H16.7c-7,0-12.7-5.7-12.7-12.7V18.03c0-7,5.7-12.7,12.7-12.7h124.45M141.15,1.34H16.7C7.48,1.34,0,8.81,0,18.03v185.73C0,212.98,7.48,220.46,16.7,220.46h124.45c9.22,0,16.7-7.48,16.7-16.7V18.03c0-9.22-7.48-16.7-16.7-16.7h0Z" />
        </g>
        <path class="cls-4"
            d="M141.15,202.01H16.7c-9.22,0-16.7-7.48-16.7-16.7V16.7C0,7.48,7.48,0,16.7,0h124.45c9.22,0,16.7,7.48,16.7,16.7v168.62c0,9.22-7.48,16.7-16.7,16.7Z" />
        <path class="cls-2"
            d="M155.29,19.12v163.94c0,8.96-7.19,16.24-16.08,16.24h-17.45c8.89,0,16.08-7.27,16.08-16.24V19.12c0-8.96-7.19-16.24-16.08-16.24h17.45c8.89,0,16.08,7.27,16.08,16.24Z" />
        <g>
            <circle class="cls-7" cx="19.32" cy="19.84" r="4.8" />
            <path class="cls-1"
                d="M19.32,16.53c1.82,0,3.3,1.48,3.3,3.3s-1.48,3.3-3.3,3.3-3.3-1.48-3.3-3.3,1.48-3.3,3.3-3.3M19.32,13.53c-3.48,0-6.3,2.82-6.3,6.3s2.82,6.3,6.3,6.3,6.3-2.82,6.3-6.3-2.82-6.3-6.3-6.3h0Z" />
        </g>
        <g>
            <path class="cls-7"
                d="M138.53,24.64c-2.65,0-4.8-2.15-4.8-4.8s2.16-4.8,4.8-4.8,4.8,2.15,4.8,4.8-2.15,4.8-4.8,4.8Z" />
            <path class="cls-1"
                d="M138.53,16.53c1.82,0,3.3,1.48,3.3,3.3s-1.48,3.3-3.3,3.3-3.3-1.48-3.3-3.3,1.48-3.3,3.3-3.3M138.53,13.53c-3.48,0-6.3,2.82-6.3,6.3s2.82,6.3,6.3,6.3,6.3-2.82,6.3-6.3-2.82-6.3-6.3-6.3h0Z" />
        </g>
        <g>
            <path class="cls-7"
                d="M138.53,188.02c-2.65,0-4.8-2.15-4.8-4.8s2.16-4.8,4.8-4.8,4.8,2.15,4.8,4.8-2.15,4.8-4.8,4.8Z" />
            <path class="cls-1"
                d="M138.53,179.92c1.82,0,3.3,1.48,3.3,3.3s-1.48,3.3-3.3,3.3-3.3-1.48-3.3-3.3,1.48-3.3,3.3-3.3M138.53,176.92c-3.48,0-6.3,2.82-6.3,6.3s2.82,6.3,6.3,6.3,6.3-2.82,6.3-6.3-2.82-6.3-6.3-6.3h0Z" />
        </g>
        <rect class="cls-10" x="44.01" y="200.11" width="69.82" height="18.44" />
        <rect class="cls-10" x="55.22" y="200.11" width="47.41" height="18.44" />
        <rect class="cls-10" x="66.96" y="200.11" width="23.93" height="18.44" />
        <line class="cls-11" x1="78.92" y1="200.37" x2="78.92" y2="218.29" />
        <path class="cls-1"
            d="M141.15,4c7,0,12.7,5.7,12.7,12.7v168.62c0,7-5.7,12.7-12.7,12.7H16.7c-7,0-12.7-5.7-12.7-12.7V16.7c0-7,5.7-12.7,12.7-12.7h124.45M141.15,0H16.7C7.48,0,0,7.48,0,16.7v168.62C0,194.54,7.48,202.01,16.7,202.01h124.45c9.22,0,16.7-7.48,16.7-16.7V16.7C157.85,7.48,150.37,0,141.15,0h0Z" />
        <path class="cls-2" d="M157.85,52.54c-2.13,0-4-1.73-4-3.86-1.95.06-2.18.07-2.2.08v6.28h6.2s0-2.5,0-2.5Z" />
        <path class="cls-2" d="M157.85,55.63c-2.13,0-4,1.73-4,3.86-1.95-.06-2.18-.07-2.2-.08v-6.28h6.2s0,2.5,0,2.5Z" />
        <path class="cls-4" d="M0,156.88c2.13,0,4-1.73,4-3.86,1.95.06,2.18.07,2.2.08v6.28H0s0-2.5,0-2.5Z" />
        <path class="cls-4" d="M0,159.97c2.13,0,4,1.73,4,3.86,1.95-.06,2.18-.07,2.2-.08v-6.28H0s0,2.5,0,2.5Z" />
        <g>
            <path class="cls-6"
                d="M73.34,139.16c-32.16,0-58.33-26.17-58.33-58.33s26.17-58.33,58.33-58.33,58.33,26.17,58.33,58.33-26.17,58.33-58.33,58.33Z" />
            <path class="cls-1"
                d="M73.35,24.5c31.06,0,56.33,25.27,56.33,56.33s-25.27,56.33-56.33,56.33-56.33-25.27-56.33-56.33,25.27-56.33,56.33-56.33M73.35,20.5c-33.32,0-60.33,27.01-60.33,60.33s27.01,60.33,60.33,60.33,60.33-27.01,60.33-60.33-27.01-60.33-60.33-60.33h0Z" />
        </g>
        <path class="cls-8"
            d="M124.98,58.43c-10.28-14.57-27.23-24.09-46.42-24.09-31.36,0-56.77,25.43-56.77,56.77,0,8.07,1.68,15.76,4.73,22.72-6.52-9.24-10.35-20.51-10.35-32.68,0-31.36,25.42-56.77,56.77-56.77,23.28,0,43.28,14.01,52.04,34.06Z" />
        <circle class="cls-4" cx="73.35" cy="80.83" r="18.97" />
        <path class="cls-2"
            d="M92.6,81.11c0,10.32-8.36,18.68-18.68,18.68-5.39,0-10.24-2.29-13.65-5.93,2.72,1.56,5.88,2.44,9.24,2.44,10.31,0,18.68-8.36,18.68-18.67,0-4.94-1.92-9.44-5.05-12.77,5.65,3.21,9.47,9.28,9.47,16.24Z" />
        <path class="cls-1"
            d="M73.35,62.87c9.91,0,17.97,8.06,17.97,17.97s-8.06,17.97-17.97,17.97-17.97-8.06-17.97-17.97,8.06-17.97,17.97-17.97M73.35,61.87c-10.47,0-18.97,8.49-18.97,18.97s8.49,18.97,18.97,18.97,18.97-8.49,18.97-18.97-8.49-18.97-18.97-18.97h0Z" />
        <path class="cls-9"
            d="M28.96,147.3c1.97,14.78,13.53,27.23,28.15,29.37,2.52.37,4.4,2.52,4.32,5.07-.14,4.15-.23,7.08-.3,9.14-.09,2.72-2.32,4.87-5.04,4.87h-.87c-26.42,0-47.85-21.42-47.85-47.85h0c0-2.78,2.25-5.04,5.04-5.05l11.53-.02c2.56,0,4.68,1.92,5.02,4.46Z" />
        <path class="cls-1"
            d="M73.35,24.5c31.06,0,56.33,25.27,56.33,56.33s-25.27,56.33-56.33,56.33-56.33-25.27-56.33-56.33,25.27-56.33,56.33-56.33M73.35,20.5c-33.32,0-60.33,27.01-60.33,60.33s27.01,60.33,60.33,60.33,60.33-27.01,60.33-60.33-27.01-60.33-60.33-60.33h0Z" />
        <g>
            <path class="cls-5"
                d="M48.66,163.82c-1.54,0-2.83-.39-3.84-1.17-1.62-1.24-2.01-3.13-2.06-4.49-.14-4.08,2.45-9.1,6.6-12.78l45.17-39.99c.67-.59,1.23-.8,1.54-.81,0,.19-.1.58-.49,1.16l-32.92,49.21c-3.49,5.22-9.25,8.86-14.01,8.86h0Z" />
            <path class="cls-1"
                d="M89.98,111.42l-28.56,42.69c-3.6,5.38-9.15,8.2-12.76,8.2-1.2,0-2.19-.29-2.93-.86-.92-.71-1.42-1.84-1.47-3.35-.13-3.66,2.27-8.21,6.1-11.6l39.63-35.08M96.08,103.09c-.71,0-1.61.36-2.54,1.18l-45.17,39.99c-7.23,6.4-9.37,15.81-4.46,19.58h0c1.31,1.01,2.95,1.48,4.76,1.48,5.04,0,11.33-3.66,15.26-9.53l32.92-49.2c1.36-2.03.68-3.49-.75-3.49h0Z" />
        </g>
    </g>
</svg>