<!-- 
    Copyright (C) 2024 Timon Spaeth
-->

<svg xmlns="http://www.w3.org/2000/svg" viewBox="0 0 81.6 213.82">
    <style>
        .cls-1 {
            fill: #000;
        }

        .cls-1,
        .cls-2,
        .cls-3 {
            stroke-width: 0px;
        }

        .cls-4 {
            fill: #8493a5;
        }

        .cls-4,
        .cls-5,
        .cls-6,
        .cls-7,
        .cls-8 {
            stroke: #000;
            stroke-miterlimit: 10;
        }

        .cls-4,
        .cls-6,
        .cls-8 {
            stroke-width: 3px;
        }

        .cls-2 {
            fill: #545f66;
        }

        .cls-5 {
            stroke-width: 2px;
        }

        .cls-5,
        .cls-6 {
            fill: #2d3133;
        }

        .cls-3 {
            fill: #e6f4ff;
        }

        .cls-7 {
            fill: #ffef7b;
        }

        .cls-8 {
            fill: none;
        }
    </style>
    <defs> </defs>
    <g id="Ebene_1-2" data-name="Ebene 1">
        <path class="cls-7" d="M3.87,199.53h4.82v13.8h-3.38c-.8,0-1.44-.65-1.44-1.44v-12.35h0Z" />
        <path class="cls-7" d="M8.69,199.53h4.82v12.62c0,.65-.53,1.18-1.18,1.18h-3.64v-13.8h0Z" />
        <path class="cls-7" d="M19.12,199.53h4.82v13.8h-3.98c-.46,0-.84-.38-.84-.84v-12.96h0Z" />
        <rect class="cls-7" x="23.94" y="199.53" width="4.82" height="13.8" />
        <rect class="cls-7" x="28.76" y="199.53" width="4.82" height="13.8" />
        <rect class="cls-7" x="33.57" y="199.53" width="4.82" height="13.8" />
        <rect class="cls-7" x="38.39" y="199.53" width="4.82" height="13.8" />
        <rect class="cls-7" x="43.21" y="199.53" width="4.82" height="13.8" />
        <rect class="cls-7" x="48.03" y="199.53" width="4.82" height="13.8" />
        <rect class="cls-7" x="52.84" y="199.53" width="4.82" height="13.8" />
        <rect class="cls-7" x="57.66" y="199.53" width="4.82" height="13.8" />
        <rect class="cls-7" x="62.48" y="199.53" width="4.82" height="13.8" />
        <rect class="cls-7" x="67.3" y="199.53" width="4.82" height="13.8" />
        <path class="cls-7" d="M72.12,199.53h4.82v11.99c0,1-.81,1.8-1.8,1.8h-3.01v-13.8h0Z" />
        <path class="cls-4"
            d="M80.1,4.57v193.49c0,1.56-1.36,2.82-3.03,2.82H19.83c-.58-1.74-2.29-2.84-4.08-2.54-1.4.23-2.47,1.24-2.89,2.54H4.53c-1.67,0-3.03-1.26-3.03-2.82V4.57c0-1.56,1.36-2.82,3.03-2.82h22.9c1.44,0,2.64.95,2.97,2.26,1.09,4.4,5.33,7.67,10.4,7.67s9.31-3.27,10.4-7.67c.33-1.31,1.53-2.26,2.97-2.26h22.9c1.67,0,3.03,1.26,3.03,2.82Z" />
        <path class="cls-2"
            d="M39.55,13.04c-1.13.39-4.65,0-5.93,0-5.02,0-9.21-3.24-10.29-7.59-.33-1.3-1.51-2.24-2.94-2.24h7.24c1.42,0,2.61.94,2.94,2.24.8,3.25,5.65,6.47,8.97,7.59Z" />
        <path class="cls-2"
            d="M79.04,5.35v191.43c0,1.54-1.35,2.79-3,2.79h-7.24c1.65,0,3-1.25,3-2.79V5.35c0-1.54-1.35-2.79-3-2.79h7.24c1.65,0,3,1.25,3,2.79Z" />
        <g>
            <path class="cls-3"
                d="M74.52,10c-1.19,0-2.19-.85-2.38-2.03-.21-1.31.68-2.56,2-2.77.13-.02.26-.03.39-.03,1.19,0,2.19.85,2.38,2.03.21,1.31-.68,2.56-2,2.77-.13.02-.26.03-.39.03Z" />
            <path class="cls-1"
                d="M74.53,5.67c.94,0,1.74.68,1.89,1.61.08.51-.04,1.01-.34,1.43-.3.42-.74.69-1.25.77-.1.02-.21.03-.31.03-.94,0-1.74-.68-1.89-1.61-.08-.51.04-1.01.34-1.43.3-.42.74-.69,1.25-.77.1-.02.21-.03.31-.03M74.53,4.67c-.16,0-.31.01-.47.04-1.59.26-2.67,1.76-2.41,3.34.23,1.43,1.47,2.45,2.87,2.45.16,0,.31-.01.47-.04,1.59-.26,2.67-1.76,2.41-3.34-.23-1.43-1.47-2.45-2.87-2.45h0Z" />
        </g>
        <g>
            <path class="cls-3"
                d="M8.69,196.77c-1.19,0-2.19-.85-2.38-2.03-.21-1.31.68-2.56,2-2.77.13-.02.26-.03.39-.03,1.19,0,2.19.85,2.38,2.03.21,1.31-.68,2.56-2,2.77-.13.02-.26.03-.39.03Z" />
            <path class="cls-1"
                d="M8.7,192.44c.94,0,1.74.68,1.89,1.61.17,1.04-.54,2.03-1.58,2.2-.1.02-.21.03-.31.03-.94,0-1.74-.68-1.89-1.61-.17-1.04.54-2.03,1.58-2.2.1-.02.21-.03.31-.03M8.7,191.44c-.16,0-.31.01-.47.04-1.59.26-2.67,1.76-2.41,3.34.23,1.43,1.47,2.45,2.87,2.45.16,0,.31-.01.47-.04,1.59-.26,2.67-1.76,2.41-3.34-.23-1.43-1.47-2.45-2.87-2.45h0Z" />
        </g>
        <rect class="cls-5" x="19.19" y="16.39" width=".65" height="8.06" rx=".31" ry=".31" />
        <rect class="cls-5" x="24.19" y="16.39" width=".65" height="8.06" rx=".31" ry=".31" />
        <rect class="cls-5" x="29.19" y="16.39" width=".65" height="8.06" rx=".31" ry=".31" />
        <rect class="cls-5" x="34.2" y="16.39" width=".65" height="8.06" rx=".31" ry=".31" />
        <rect class="cls-5" x="14.64" y="35.18" width=".65" height="8.06" rx=".31" ry=".31"
            transform="translate(-24.25 54.18) rotate(-90)" />
        <rect class="cls-5" x="14.64" y="30.18" width=".65" height="8.06" rx=".31" ry=".31"
            transform="translate(-19.24 49.18) rotate(-90)" />
        <rect class="cls-5" x="14.64" y="25.17" width=".65" height="8.06" rx=".31" ry=".31"
            transform="translate(-14.24 44.17) rotate(-90)" />
        <rect class="cls-5" x="14.64" y="20.17" width=".65" height="8.06" rx=".31" ry=".31"
            transform="translate(-9.23 39.17) rotate(-90)" />
        <rect class="cls-5" x="38.56" y="35.18" width=".65" height="8.06" rx=".31" ry=".31"
            transform="translate(-.33 78.1) rotate(-90)" />
        <rect class="cls-5" x="38.56" y="30.18" width=".65" height="8.06" rx=".31" ry=".31"
            transform="translate(4.67 73.09) rotate(-90)" />
        <rect class="cls-5" x="38.56" y="25.17" width=".65" height="8.06" rx=".31" ry=".31"
            transform="translate(9.68 68.09) rotate(-90)" />
        <rect class="cls-5" x="38.56" y="20.17" width=".65" height="8.06" rx=".31" ry=".31"
            transform="translate(14.68 63.09) rotate(-90)" />
        <rect class="cls-5" x="19.19" y="38.96" width=".65" height="8.06" rx=".31" ry=".31" />
        <rect class="cls-5" x="24.19" y="38.96" width=".65" height="8.06" rx=".31" ry=".31" />
        <rect class="cls-5" x="29.19" y="38.96" width=".65" height="8.06" rx=".31" ry=".31" />
        <rect class="cls-5" x="34.2" y="38.96" width=".65" height="8.06" rx=".31" ry=".31" />
        <rect class="cls-5" x="15.62" y="20.43" width="22.57" height="22.57" rx="2.2" ry="2.2" />
        <circle class="cls-1" cx="20.39" cy="38.15" r="1.39" />
        <path class="cls-8"
            d="M80.1,4.32v193.49c0,1.56-1.36,2.82-3.03,2.82H19.83c-.58-1.74-2.29-2.84-4.08-2.54-1.4.23-2.47,1.24-2.89,2.54H4.53c-1.67,0-3.03-1.26-3.03-2.82V4.32c0-1.56,1.36-2.82,3.03-2.82h22.9c1.44,0,2.64.95,2.97,2.26,1.09,4.4,5.33,7.67,10.4,7.67s9.31-3.27,10.4-7.67c.33-1.31,1.53-2.26,2.97-2.26h22.9c1.67,0,3.03,1.26,3.03,2.82Z" />
    </g>
    <g id="Ebene_2-2" data-name="Ebene 2">
        <rect class="cls-6" x="19.54" y="98.67" width="1.24" height="10.01" rx=".42" ry=".42" />
        <rect class="cls-6" x="27.58" y="98.67" width="1.24" height="10.01" rx=".42" ry=".42" />
        <rect class="cls-6" x="35.61" y="98.67" width="1.24" height="10.01" rx=".42" ry=".42" />
        <rect class="cls-6" x="43.19" y="98.67" width="1.24" height="10.01" rx=".42" ry=".42" />
        <rect class="cls-6" x="51.22" y="98.67" width="1.24" height="10.01" rx=".42" ry=".42" />
        <rect class="cls-6" x="59.25" y="98.67" width="1.24" height="10.01" rx=".42" ry=".42" />
        <rect class="cls-6" x="19.54" y="131.68" width="1.24" height="10.01" rx=".42" ry=".42" />
        <rect class="cls-6" x="27.58" y="131.68" width="1.24" height="10.01" rx=".42" ry=".42" />
        <rect class="cls-6" x="35.61" y="131.68" width="1.24" height="10.01" rx=".42" ry=".42" />
        <rect class="cls-6" x="43.19" y="131.68" width="1.24" height="10.01" rx=".42" ry=".42" />
        <rect class="cls-6" x="51.22" y="131.68" width="1.24" height="10.01" rx=".42" ry=".42" />
        <rect class="cls-6" x="59.25" y="131.68" width="1.24" height="10.01" rx=".42" ry=".42" />
        <rect class="cls-6" x="11.63" y="106.2" width="56.77" height="28.02" rx="4.86" ry="4.86" />
        <circle class="cls-1" cx="18.4" cy="129.11" r="2.56" />
        <rect class="cls-6" x="21.11" y="151.33" width="1.24" height="10.01" rx=".42" ry=".42" />
        <rect class="cls-6" x="29.14" y="151.33" width="1.24" height="10.01" rx=".42" ry=".42" />
        <rect class="cls-6" x="37.17" y="151.33" width="1.24" height="10.01" rx=".42" ry=".42" />
        <rect class="cls-6" x="44.75" y="151.33" width="1.24" height="10.01" rx=".42" ry=".42" />
        <rect class="cls-6" x="52.78" y="151.33" width="1.24" height="10.01" rx=".42" ry=".42" />
        <rect class="cls-6" x="60.82" y="151.33" width="1.24" height="10.01" rx=".42" ry=".42" />
        <rect class="cls-6" x="21.11" y="184.34" width="1.24" height="10.01" rx=".42" ry=".42" />
        <rect class="cls-6" x="29.14" y="184.34" width="1.24" height="10.01" rx=".42" ry=".42" />
        <rect class="cls-6" x="37.17" y="184.34" width="1.24" height="10.01" rx=".42" ry=".42" />
        <rect class="cls-6" x="44.75" y="184.34" width="1.24" height="10.01" rx=".42" ry=".42" />
        <rect class="cls-6" x="52.78" y="184.34" width="1.24" height="10.01" rx=".42" ry=".42" />
        <rect class="cls-6" x="60.82" y="184.34" width="1.24" height="10.01" rx=".42" ry=".42" />
        <rect class="cls-6" x="13.2" y="158.86" width="56.77" height="28.02" rx="4.86" ry="4.86" />
        <circle class="cls-1" cx="19.97" cy="181.78" r="2.56" />
    </g>
    <g id="Ebene_3" data-name="Ebene 3">
        <g>
            <path class="cls-3"
                d="M12.86,52.15h55.89c3.54,0,6.41,2.87,6.41,6.41v23.67c0,3.54-2.87,6.41-6.41,6.41H12.86c-3.54,0-6.41-2.87-6.41-6.41v-23.67c0-3.54,2.87-6.41,6.41-6.41Z" />
            <path class="cls-1"
                d="M68.74,53.15c2.98,0,5.41,2.43,5.41,5.41v23.67c0,2.98-2.43,5.41-5.41,5.41H12.86c-2.98,0-5.41-2.43-5.41-5.41v-23.67c0-2.98,2.43-5.41,5.41-5.41h55.89M68.74,51.15H12.86c-4.09,0-7.41,3.32-7.41,7.41v23.67c0,4.09,3.32,7.41,7.41,7.41h55.89c4.09,0,7.41-3.32,7.41-7.41v-23.67c0-4.09-3.32-7.41-7.41-7.41h0Z" />
        </g>
        <path class="cls-1"
            d="M12.06,80.34c.67-6.48,1.51-12.94,2.67-19.35l-2.06.27c2.86,6.21,3.86,13.08,6.47,19.38.38.91,1.92,1.21,2.17,0,1.36-6.63,2.72-13.26,4.08-19.89.29-1.41-1.88-2.02-2.17-.6-1.36,6.63-2.72,13.26-4.08,19.89h2.17c-2.68-6.49-3.75-13.52-6.69-19.92-.39-.85-1.89-.66-2.06.27-1.2,6.61-2.06,13.27-2.75,19.95-.15,1.44,2.1,1.43,2.25,0h0Z" />
        <path class="cls-1"
            d="M27.05,60.75c1.35,6.93,3.05,13.78,5.1,20.54.31,1.03,1.89,1.11,2.17,0,1.72-6.8,4.46-13.26,8.17-19.21.77-1.23-1.18-2.36-1.94-1.14-3.8,6.1-6.64,12.77-8.4,19.74h2.17c-2.05-6.75-3.75-13.61-5.1-20.54-.28-1.42-2.45-.82-2.17.6h0Z" />
        <path class="cls-1"
            d="M41.1,80.98c1.95-6.48,3.89-12.97,5.84-19.45h-2.17c.76,3.22,1.52,6.45,2.28,9.67.28,1.2,1.78.93,2.17,0,1.52-3.63,3.31-7.14,5.31-10.52l-2.1-.57c.64,6.89,1.59,13.8,3.25,20.53.35,1.41,2.52.81,2.17-.6-1.61-6.54-2.55-13.23-3.17-19.93-.1-1.06-1.49-1.59-2.1-.57-2.1,3.56-3.93,7.25-5.53,11.06h2.17c-.76-3.22-1.52-6.45-2.28-9.67-.26-1.11-1.86-1.03-2.17,0-1.95,6.48-3.89,12.97-5.84,19.45-.42,1.39,1.75,1.98,2.17.6h0Z" />
        <path class="cls-1"
            d="M59.44,74.81c2.51,1.33,6.06,1.17,8.22-.78,1.1-.99,1.65-2.48,1.43-3.94s-1.26-2.88-2.7-3.24c-3.24-.81-6.79,1.47-7.58,4.64-.71,2.84.33,5.98,2.63,7.8,2.6,2.06,6.53,2.57,9.5,1.01,1.28-.67.15-2.61-1.14-1.94-1.75.92-4.12.75-5.86-.12s-2.99-2.6-3.09-4.58c-.05-1.05.15-2.13.78-3s1.64-1.39,2.68-1.61c.46-.1,1.02-.15,1.49-.03s.78.54.95.95c.3.7.18,1.48-.3,2.1-1.26,1.63-4.18,1.69-5.86.8-1.28-.68-2.42,1.27-1.14,1.94h0Z" />
    </g>
</svg>