<!-- 
    Copyright (C) 2024 Timon Spaeth
-->
<svg xmlns="http://www.w3.org/2000/svg" viewBox="0 0 157.85 220.46">
    <style>
        .cls-1 {
            fill: #000;
        }

        .cls-1,
        .cls-2,
        .cls-3,
        .cls-4,
        .cls-5 {
            stroke-width: 0px;
        }

        .cls-2 {
            fill: #545f66;
        }

        .cls-3 {
            fill: #626f7c;
        }

        .cls-4 {
            fill: #8493a5;
        }

        .cls-5 {
            fill: #e6f4ff;
        }

        .cls-6 {
            fill: #ffef7b;
        }

        .cls-6,
        .cls-7 {
            stroke: #000;
            stroke-miterlimit: 10;
            stroke-width: 3px;
        }

        .cls-7 {
            fill: none;
        }
    </style>
    <defs> </defs>
    <g id="Ebene_1-2" data-name="Ebene 1">
        <g>
            <rect class="cls-3" x="2" y="3.34" width="153.85" height="215.12" rx="14.7" ry="14.7" />
            <path class="cls-1"
                d="M141.15,5.34c7,0,12.7,5.7,12.7,12.7v185.73c0,7-5.7,12.7-12.7,12.7H16.7c-7,0-12.7-5.7-12.7-12.7V18.03c0-7,5.7-12.7,12.7-12.7h124.45M141.15,1.34H16.7C7.48,1.34,0,8.81,0,18.03v185.73c0,9.22,7.48,16.7,16.7,16.7h124.45c9.22,0,16.7-7.48,16.7-16.7V18.03c0-9.22-7.48-16.7-16.7-16.7h0Z" />
        </g>
        <path class="cls-4"
            d="M141.15,202.01H16.7C7.48,202.01,0,194.54,0,185.31V16.7C0,7.48,7.48,0,16.7,0h124.45c9.22,0,16.7,7.48,16.7,16.7v168.62c0,9.22-7.48,16.7-16.7,16.7Z" />
        <path class="cls-2"
            d="M155.29,19.12v163.94c0,8.96-7.19,16.24-16.08,16.24h-17.45c8.89,0,16.08-7.27,16.08-16.24V19.12c0-8.96-7.19-16.24-16.08-16.24h17.45c8.89,0,16.08,7.27,16.08,16.24Z" />
        <g>
            <circle class="cls-5" cx="19.32" cy="19.84" r="4.8" />
            <path class="cls-1"
                d="M19.32,16.53c1.82,0,3.3,1.48,3.3,3.3s-1.48,3.3-3.3,3.3-3.3-1.48-3.3-3.3,1.48-3.3,3.3-3.3M19.32,13.53c-3.48,0-6.3,2.82-6.3,6.3s2.82,6.3,6.3,6.3,6.3-2.82,6.3-6.3-2.82-6.3-6.3-6.3h0Z" />
        </g>
        <g>
            <circle class="cls-5" cx="138.53" cy="19.84" r="4.8" />
            <path class="cls-1"
                d="M138.53,16.53c1.82,0,3.3,1.48,3.3,3.3s-1.48,3.3-3.3,3.3-3.3-1.48-3.3-3.3,1.48-3.3,3.3-3.3M138.53,13.53c-3.48,0-6.3,2.82-6.3,6.3s2.82,6.3,6.3,6.3,6.3-2.82,6.3-6.3-2.82-6.3-6.3-6.3h0Z" />
        </g>
        <g>
            <circle class="cls-5" cx="19.32" cy="183.22" r="4.8" />
            <path class="cls-1"
                d="M19.32,179.92c1.82,0,3.3,1.48,3.3,3.3s-1.48,3.3-3.3,3.3-3.3-1.48-3.3-3.3,1.48-3.3,3.3-3.3M19.32,176.92c-3.48,0-6.3,2.82-6.3,6.3s2.82,6.3,6.3,6.3,6.3-2.82,6.3-6.3-2.82-6.3-6.3-6.3h0Z" />
        </g>
        <g>
            <circle class="cls-5" cx="138.53" cy="183.22" r="4.8" />
            <path class="cls-1"
                d="M138.53,179.92c1.82,0,3.3,1.48,3.3,3.3s-1.48,3.3-3.3,3.3-3.3-1.48-3.3-3.3,1.48-3.3,3.3-3.3M138.53,176.92c-3.48,0-6.3,2.82-6.3,6.3s2.82,6.3,6.3,6.3,6.3-2.82,6.3-6.3-2.82-6.3-6.3-6.3h0Z" />
        </g>
        <rect class="cls-6" x="44.01" y="200.11" width="69.82" height="18.44" />
        <rect class="cls-6" x="55.22" y="200.11" width="47.41" height="18.44" />
        <rect class="cls-6" x="66.96" y="200.11" width="23.93" height="18.44" />
        <line class="cls-7" x1="78.92" y1="200.37" x2="78.92" y2="218.29" />
        <g>
            <rect class="cls-5" x="23.62" y="55.5" width="110.6" height="57.43" rx="5.91" ry="5.91" />
            <path class="cls-1"
                d="M128.32,57c2.43,0,4.41,1.98,4.41,4.41v45.61c0,2.43-1.98,4.41-4.41,4.41H29.53c-2.43,0-4.41-1.98-4.41-4.41v-45.61c0-2.43,1.98-4.41,4.41-4.41h98.78M128.32,54H29.53c-4.09,0-7.41,3.32-7.41,7.41v45.61c0,4.09,3.32,7.41,7.41,7.41h98.78c4.09,0,7.41-3.32,7.41-7.41v-45.61c0-4.09-3.32-7.41-7.41-7.41h0Z" />
        </g>
        <path class="cls-1"
            d="M56.8,67.34c-4.23-3.07-10.05-2.59-13.94.76s-5.45,9.94-1.1,13.44c1.9,1.53,4.33,2.29,6.55,3.23,2.06.88,4.23,1.82,5.97,3.26,1.49,1.23,2.45,2.7,2.89,4.52.11.44.14,1.38.05,1.79-.18.78-.49,1.35-1.18,1.95-1.56,1.35-4.19,1.48-6.37,1.17-2.56-.37-5.15-1.04-7.26-2.57-1.31-.95-3.34-.23-4.1,1.08-.89,1.52-.24,3.15,1.08,4.1,2.05,1.48,4.51,2.32,6.96,2.85,2.82.61,5.68.92,8.53.35,4.79-.95,8.73-5.1,8.41-10.15s-3.52-8.96-7.68-11.44c-2.17-1.3-4.55-2.2-6.87-3.19-.89-.38-1.8-.74-2.64-1.23-.75-.44-.96-.74-.93-1.44.07-1.68,1.41-3.36,3.02-4.12,1.8-.84,3.89-.43,5.61.82,1.31.95,3.34.22,4.1-1.08.89-1.52.24-3.15-1.08-4.1h0Z" />
        <path class="cls-1"
            d="M85.95,66.91c-4.23-3.07-10.05-2.59-13.94.76s-5.45,9.94-1.1,13.44c1.9,1.53,4.33,2.29,6.55,3.23,2.06.88,4.23,1.82,5.97,3.26,1.49,1.23,2.45,2.7,2.89,4.52.11.44.14,1.38.05,1.79-.18.78-.49,1.35-1.18,1.95-1.56,1.35-4.19,1.48-6.37,1.17-2.56-.37-5.15-1.04-7.26-2.57-1.31-.95-3.34-.23-4.1,1.08-.89,1.52-.24,3.15,1.08,4.1,2.05,1.48,4.51,2.32,6.96,2.85,2.82.61,5.68.92,8.53.35,4.79-.95,8.73-5.1,8.41-10.15s-3.52-8.96-7.68-11.44c-2.17-1.3-4.55-2.2-6.87-3.19-.89-.38-1.8-.74-2.64-1.23-.75-.44-.96-.74-.93-1.44.07-1.68,1.41-3.36,3.02-4.12,1.8-.84,3.89-.43,5.61.82,1.31.95,3.34.22,4.1-1.08.89-1.52.24-3.15-1.08-4.1h0Z" />
        <path class="cls-1" d="M96.45,68.8v29.95c0,3.86,6,3.87,6,0v-29.95c0-3.86-6-3.87-6,0h0Z" />
        <path class="cls-1"
            d="M99.44,71.62c3.69.1,7.88.12,11.14,1.9s4.4,5.43,4.33,9.18c-.08,3.99-.35,8.3-3.7,10.85s-7.56,2.96-11.52,2.8c-1.62-.07-3,1.43-3,3,0,1.68,1.37,2.93,3,3,8.12.33,18.08-2.78,20.29-11.64.56-2.27.76-4.71.89-7.04s0-4.64-.64-6.85c-1.12-3.88-3.76-7.21-7.46-8.9-4.19-1.91-8.8-2.18-13.34-2.3-3.86-.1-3.86,5.9,0,6h0Z" />
        <path class="cls-1"
            d="M141.15,4c7,0,12.7,5.7,12.7,12.7v168.62c0,7-5.7,12.7-12.7,12.7H16.7c-7,0-12.7-5.7-12.7-12.7V16.7c0-7,5.7-12.7,12.7-12.7h124.45M141.15,0H16.7C7.48,0,0,7.48,0,16.7v168.62c0,9.22,7.48,16.7,16.7,16.7h124.45c9.22,0,16.7-7.48,16.7-16.7V16.7C157.85,7.48,150.37,0,141.15,0h0Z" />
        <path class="cls-2" d="M157.85,52.54c-2.13,0-4-1.73-4-3.86-1.95.06-2.18.07-2.2.08v6.28h6.2s0-2.5,0-2.5Z" />
        <path class="cls-2" d="M157.85,55.63c-2.13,0-4,1.73-4,3.86-1.95-.06-2.18-.07-2.2-.08v-6.28h6.2s0,2.5,0,2.5Z" />
        <path class="cls-4" d="M0,156.88c2.13,0,4-1.73,4-3.86,1.95.06,2.18.07,2.2.08v6.28H0S0,156.88,0,156.88Z" />
        <path class="cls-4" d="M0,159.97c2.13,0,4,1.73,4,3.86,1.95-.06,2.18-.07,2.2-.08v-6.28H0S0,159.97,0,159.97Z" />
    </g>
</svg>