<!-- 
    Copyright (C) 2024 Timon Spaeth
-->
<svg xmlns="http://www.w3.org/2000/svg" viewBox="0 0 122.84 318.61">
    <style>
        .cls-1 {
            fill: #000;
        }

        .cls-1,
        .cls-2,
        .cls-3,
        .cls-4 {
            stroke-width: 0px;
        }

        .cls-5 {
            fill: #ffef7b;
            stroke-width: 2px;
        }

        .cls-5,
        .cls-6 {
            stroke: #000;
            stroke-miterlimit: 10;
        }

        .cls-6 {
            fill: none;
        }

        .cls-2 {
            fill: #8493a5;
        }

        .cls-3 {
            fill: #6b7b84;
        }

        .cls-4 {
            fill: #e6f4ff;
        }
    </style>

    <g id="USB_Stick" data-name="USB Stick">
        <rect class="cls-2" x="27.18" width="68.77" height="73.63" rx="2.55" ry="2.55" />
        <path class="cls-3"
            d="M95.95,64.6v3.5c0,1.41-1.14,2.55-2.55,2.55H29.73c-1.4,0-2.55-1.14-2.55-2.55v-3.5c0,1.41,1.15,2.55,2.55,2.55h63.67c1.41,0,2.55-1.14,2.55-2.55Z" />
        <rect class="cls-2" y="70.17" width="122.84" height="248.44" rx="15.53" ry="15.53" />
        <path class="cls-3"
            d="M119.73,85.7v217.38c0,8.58-6.95,15.53-15.53,15.53h-9.48c8.57,0,15.52-6.95,15.52-15.53V85.7c0-8.58-6.95-15.53-15.52-15.53h9.48c8.58,0,15.53,6.95,15.53,15.53Z" />
        <path class="cls-3"
            d="M94.87,3.16v68.53c0,1.41-1.14,2.55-2.55,2.55h-8.09c1.4,0,2.55-1.14,2.55-2.55V3.16c0-1.4-1.15-2.55-2.55-2.55h8.09c1.41,0,2.55,1.15,2.55,2.55Z" />
        <rect class="cls-5" x="37.93" y="29.05" width="14.77" height="12.66" rx="3.96" ry="3.96" />
        <rect class="cls-5" x="70.14" y="29.05" width="14.77" height="12.66" rx="3.96" ry="3.96" />
        <path class="cls-1"
            d="M107.31,74.17c6.36,0,11.53,5.17,11.53,11.53v217.38c0,6.36-5.17,11.53-11.53,11.53H15.53c-6.36,0-11.53-5.17-11.53-11.53V85.7c0-6.36,5.17-11.53,11.53-11.53h91.78M107.31,70.17H15.53C6.95,70.17,0,77.12,0,85.7v217.38C0,311.66,6.95,318.61,15.53,318.61h91.78c8.58,0,15.53-6.95,15.53-15.53V85.7c0-8.58-6.95-15.53-15.53-15.53h0Z" />
        <path class="cls-1"
            d="M92.95,3v67.63H30.18V3h62.77M93.4,0H29.73C28.32,0,27.18,1.14,27.18,2.55v68.53c0,1.41,1.14,2.55,2.55,2.55h63.67c1.41,0,2.55-1.14,2.55-2.55V2.55C95.95,1.14,94.81,0,93.4,0h0Z" />
    </g>
    <g id="USB_Logo" data-name="USB Logo">
        <circle class="cls-4" cx="59.92" cy="241.78" r="17.06" />
        <rect class="cls-4" x="56.89" y="143.27" width="6.06" height="91.96" />
        <rect class="cls-4" x="44.52" y="188.82" width="6.06" height="36.03"
            transform="translate(-125.52 84) rotate(-41.69)" />
        <rect class="cls-4" x="55.84" y="194.04" width="36.03" height="6.06"
            transform="translate(-109.26 93.34) rotate(-39.93)" />
        <polyline class="cls-4" points="45.99 143.64 60.16 129.94 73.85 144.1" />
        <rect class="cls-4" x="83.6" y="176.99" width="6.06" height="10.87" />
        <rect class="cls-4" x="33.25" y="184.49" width="6.06" height="10.87" />
        <rect class="cls-4" x="27.96" y="167.85" width="16.64" height="16.64" />
        <circle class="cls-4" cx="86.63" cy="171.02" r="8.24" />
        <line class="cls-6" x1="63.51" y1="2.12" x2="63.51" y2="16.55" />
        <line class="cls-6" x1="57.55" y1="16.1" x2="64.01" y2="16.1" />
        <line class="cls-6" x1="57.07" y1="26.21" x2="63.53" y2="26.21" />
        <line class="cls-6" x1="57.55" y1="26.7" x2="57.55" y2="15.62" />
        <line class="cls-6" x1="63.51" y1="38.66" x2="63.51" y2="25.72" />
        <line class="cls-6" x1="63.51" y1="49.74" x2="63.51" y2="38.66" />
        <line class="cls-6" x1="57.07" y1="49.23" x2="63.53" y2="49.23" />
        <line class="cls-6" x1="56.59" y1="59.34" x2="63.05" y2="59.34" />
        <line class="cls-6" x1="57.07" y1="59.83" x2="57.07" y2="48.75" />
        <line class="cls-6" x1="63.51" y1="70.27" x2="63.51" y2="58.94" />
        <path class="cls-2" d="M0,270.57c2.13,0,4-1.73,4-3.86,1.95.06,2.18.07,2.2.08v6.28H0s0-2.5,0-2.5Z" />
        <path class="cls-2" d="M0,273.66c2.13,0,4,1.73,4,3.86,1.95-.06,2.18-.07,2.2-.08v-6.28H0s0,2.5,0,2.5Z" />
        <path class="cls-3" d="M122.83,114.27c-2.13,0-4-1.73-4-3.86-1.95.06-2.18.07-2.2.08v6.28h6.2s0-2.5,0-2.5Z" />
        <path class="cls-3" d="M122.83,117.36c-2.13,0-4,1.73-4,3.86-1.95-.06-2.18-.07-2.2-.08v-6.28h6.2s0,2.5,0,2.5Z" />
    </g>
</svg>